<?xml version="1.0" encoding="UTF-8" standalone="no"?>
<!DOCTYPE svg PUBLIC "-//W3C//DTD SVG 1.1//EN" "http://www.w3.org/Graphics/SVG/1.1/DTD/svg11.dtd">
<svg width="100%" height="100%" viewBox="0 0 1804 2407" version="1.1" xmlns="http://www.w3.org/2000/svg" xmlns:xlink="http://www.w3.org/1999/xlink" xml:space="preserve" xmlns:serif="http://www.serif.com/" style="fill-rule:evenodd;clip-rule:evenodd;stroke-linecap:round;stroke-linejoin:round;">
    <g transform="matrix(1,0,0,1,-584.483333,-318.739136)">
        <g transform="matrix(1.5,0,0,1.5,0,0)">
            <g id="Lockasaur-Open" serif:id="Lockasaur Open" transform="matrix(1.579578,0,0,1.579578,2153.775908,104.347872)">
                <g transform="matrix(0.933549,-0,0,1.186349,-2466.946627,-252.627708)"><g id="Arco">
                    <path d="M2018.607,488.589L2018.607,464.3C2018.607,406.925 1959.412,360.344 1886.5,360.344C1813.588,360.344 1754.393,406.925 1754.393,464.3L1754.393,596.401C1754.393,639.442 1798.799,674.385 1853.495,674.385L1861.006,674.385L1861.006,779L1829.912,779C1736.135,779 1660,719.089 1660,645.295L1660,464.235C1660,365.864 1761.491,286 1886.5,286C2011.509,286 2113,365.864 2113,464.235L2113,529.71L2018.607,529.71L2018.607,519.411L2054.762,504.012L2018.607,488.589Z" style="fill:url(#_Linear1);stroke:url(#_Linear2);stroke-width:13.18px;"/>
                    <path d="M2018.607,488.589L2018.607,464.3C2018.607,406.925 1959.412,360.344 1886.5,360.344C1813.588,360.344 1754.393,406.925 1754.393,464.3L1754.393,596.401C1754.393,639.442 1798.799,674.385 1853.495,674.385L1861.006,674.385L1861.006,779L1829.912,779C1736.135,779 1660,719.089 1660,645.295L1660,464.235C1660,365.864 1761.491,286 1886.5,286C2011.509,286 2113,365.864 2113,464.235L2113,529.71L2018.607,529.71L2018.607,519.411L2054.762,504.012L2018.607,488.589Z" style="fill:url(#_Linear3);stroke:url(#_Linear4);stroke-width:13.18px;"/>
                </g></g>
                <g id="Aletas">
                    <g transform="matrix(46.56493,100.215822,106.593952,-49.528505,-1065.603102,551.078473)">
                        <path d="M0.157,0.263C0.08,-0.152 0.206,-0.436 0.385,-0.52C0.563,-0.604 0.908,-0.501 1.283,-0.201C0.946,0.075 0.547,0.394 0.375,0.659C0.343,0.634 0.31,0.601 0.279,0.559C0.227,0.489 0.181,0.394 0.157,0.263Z" style="fill:url(#_Linear5);fill-rule:nonzero;"/>
                        <clipPath id="_clip6">
                            <path d="M0.157,0.263C0.08,-0.152 0.206,-0.436 0.385,-0.52C0.563,-0.604 0.908,-0.501 1.283,-0.201C0.946,0.075 0.547,0.394 0.375,0.659C0.343,0.634 0.31,0.601 0.279,0.559C0.227,0.489 0.181,0.394 0.157,0.263Z" clip-rule="nonzero"/>
                        </clipPath>
                        <g clip-path="url(#_clip6)">
                            <g opacity="0.5">
                                <g id="Sombra" transform="matrix(-0.001934,-0.003913,0.011985,-0.005236,-5.065757,3.397266)">
                                    <g style="filter:url(#_Effect7);">
                                        <circle cx="130.5" cy="516.5" r="54.5" style="fill:rgb(71,71,71);"/>
                                    </g>
                                </g>
                            </g>
                        </g>
                        <path d="M0.157,0.263C0.08,-0.152 0.206,-0.436 0.385,-0.52C0.563,-0.604 0.908,-0.501 1.283,-0.201C0.946,0.075 0.547,0.394 0.375,0.659C0.343,0.634 0.31,0.601 0.279,0.559C0.227,0.489 0.181,0.394 0.157,0.263Z" style="fill:none;fill-rule:nonzero;stroke:url(#_Linear8);stroke-width:0.12px;stroke-linecap:butt;stroke-miterlimit:2;"/>
                    </g>
                    <g transform="matrix(104.544986,150.177247,109.572036,-63.411104,-1003.826867,413.939077)">
                        <path d="M0.024,0.041C-0.148,-0.475 0.563,-0.595 0.889,-0.524C0.977,-0.505 1.057,-0.476 1.13,-0.44C0.974,-0.07 0.909,0.376 0.909,0.376L0.442,0.647C0.349,0.568 0.24,0.455 0.149,0.307C0.101,0.228 0.057,0.14 0.024,0.041Z" style="fill:url(#_Linear9);fill-rule:nonzero;"/>
                        <clipPath id="_clip10">
                            <path d="M0.024,0.041C-0.148,-0.475 0.563,-0.595 0.889,-0.524C0.977,-0.505 1.057,-0.476 1.13,-0.44C0.974,-0.07 0.909,0.376 0.909,0.376L0.442,0.647C0.349,0.568 0.24,0.455 0.149,0.307C0.101,0.228 0.057,0.14 0.024,0.041Z" clip-rule="nonzero"/>
                        </clipPath>
                        <g clip-path="url(#_clip10)">
                            <g opacity="0.5">
                                <g id="Sombra1" serif:id="Sombra" transform="matrix(-0.002702,-0.000626,0.001903,-0.011435,-0.069263,6.039338)">
                                    <g style="filter:url(#_Effect11);">
                                        <circle cx="130.5" cy="516.5" r="54.5" style="fill:rgb(71,71,71);"/>
                                    </g>
                                </g>
                            </g>
                        </g>
                        <path d="M0.024,0.041C-0.148,-0.475 0.563,-0.595 0.889,-0.524C0.977,-0.505 1.057,-0.476 1.13,-0.44C0.974,-0.07 0.909,0.376 0.909,0.376L0.442,0.647C0.349,0.568 0.24,0.455 0.149,0.307C0.101,0.228 0.057,0.14 0.024,0.041Z" style="fill:none;fill-rule:nonzero;stroke:url(#_Linear12);stroke-width:0.09px;stroke-linecap:butt;stroke-miterlimit:2;"/>
                    </g>
                    <g transform="matrix(99.890041,124.985575,125.436341,-100.250299,-1102.561458,718.617295)">
                        <path d="M0.165,0.025C0.174,-0.292 0.371,-0.392 0.582,-0.333C0.711,-0.297 0.836,-0.207 0.941,-0.113C0.703,0.072 0.445,0.279 0.333,0.389C0.318,0.404 0.302,0.419 0.285,0.435C0.22,0.325 0.16,0.181 0.165,0.025Z" style="fill:url(#_Linear13);fill-rule:nonzero;"/>
                        <clipPath id="_clip14">
                            <path d="M0.165,0.025C0.174,-0.292 0.371,-0.392 0.582,-0.333C0.711,-0.297 0.836,-0.207 0.941,-0.113C0.703,0.072 0.445,0.279 0.333,0.389C0.318,0.404 0.302,0.419 0.285,0.435C0.22,0.325 0.16,0.181 0.165,0.025Z" clip-rule="nonzero"/>
                        </clipPath>
                        <g clip-path="url(#_clip14)">
                            <g opacity="0.5">
                                <g id="Sombra2" serif:id="Sombra" transform="matrix(-0.001979,-0.002467,0.00713,-0.005678,-2.752854,3.479858)">
                                    <g style="filter:url(#_Effect15);">
                                        <circle cx="130.5" cy="516.5" r="54.5" style="fill:rgb(71,71,71);"/>
                                    </g>
                                </g>
                            </g>
                        </g>
                        <path d="M0.165,0.025C0.174,-0.292 0.371,-0.392 0.582,-0.333C0.711,-0.297 0.836,-0.207 0.941,-0.113C0.703,0.072 0.445,0.279 0.333,0.389C0.318,0.404 0.302,0.419 0.285,0.435C0.22,0.325 0.16,0.181 0.165,0.025Z" style="fill:none;fill-rule:nonzero;stroke:url(#_Linear16);stroke-width:0.09px;stroke-linecap:butt;stroke-miterlimit:2;"/>
                    </g>
                </g>
                <g id="Fondo-App" serif:id="Fondo App" transform="matrix(1.157086,0,0,1.192607,-1308.647825,278.778265)">
                    <path d="M796,261.261L796,563.62C796,611.846 755.644,651 705.938,651L336.607,651C286.6,651 246,611.61 246,563.092L246,286.615C246,204.04 315.098,137 400.208,137L667.924,137C738.611,137 796,192.679 796,261.261Z" style="fill:url(#_Linear17);stroke:url(#_Linear18);stroke-width:12.87px;stroke-linecap:butt;stroke-miterlimit:1.5;"/>
                </g>
                <g id="Sombra3" serif:id="Sombra" transform="matrix(-4.390576,-0.003776,-0.001215,1.41342,-130.730759,228.509627)">
                    <g style="filter:url(#_Effect19);">
                        <circle cx="130.5" cy="516.5" r="54.5" style="fill:rgb(0,38,109);fill-opacity:0.72;"/>
                    </g>
                </g>
                <g id="Sombra4" serif:id="Sombra" transform="matrix(-1.758205,0.653988,0.492756,1.324745,-529.532652,-55.167805)">
                    <g style="filter:url(#_Effect20);">
                        <circle cx="130.5" cy="516.5" r="54.5" style="fill:rgb(0,38,109);fill-opacity:0.5;"/>
                    </g>
                </g>
                <g id="Sombra5" serif:id="Sombra" transform="matrix(-1.440367,0,0,2.87156,-719.898101,-798.66055)">
                    <g style="filter:url(#_Effect21);">
                        <circle cx="130.5" cy="516.5" r="54.5" style="fill:rgb(10,62,159);fill-opacity:0.5;"/>
                    </g>
                </g>
                <g id="Dinosaur">
                    <g id="Cuerpo" transform="matrix(-27.179211,436.102783,436.102783,27.179211,-696.006748,715.834747)">
                        <path d="M-0.127,-0.067C-0.129,-0.059 -0.13,-0.051 -0.13,-0.041C-0.13,-0.041 -0.131,-0.041 -0.131,-0.041C-0.131,-0.041 -0.131,-0.041 -0.131,-0.041C-0.131,-0.041 -0.138,-0.054 -0.137,-0.072C-0.137,-0.075 -0.136,-0.078 -0.136,-0.081C-0.134,-0.089 -0.13,-0.098 -0.123,-0.106C-0.123,-0.107 -0.123,-0.107 -0.123,-0.107C-0.107,-0.126 -0.09,-0.133 -0.079,-0.135C-0.073,-0.136 -0.068,-0.136 -0.068,-0.136C-0.068,-0.136 -0.068,-0.136 -0.068,-0.136C-0.068,-0.135 -0.068,-0.135 -0.068,-0.135C-0.068,-0.135 -0.074,-0.133 -0.082,-0.128L-0.082,-0.128C-0.091,-0.123 -0.103,-0.114 -0.109,-0.105C-0.107,-0.104 -0.094,-0.099 -0.077,-0.09L-0.077,-0.09C-0.031,-0.067 0.052,-0.013 0.098,0.089C0.119,0.135 0.132,0.191 0.132,0.258C0.132,0.303 0.129,0.34 0.125,0.37C0.118,0.421 0.106,0.451 0.094,0.467C0.085,0.477 0.077,0.481 0.068,0.482C0.056,0.482 0.045,0.475 0.038,0.465C0.047,0.519 0.117,0.528 0.181,0.504C0.218,0.489 0.262,0.488 0.302,0.491C0.311,0.493 0.437,0.501 0.437,0.501C0.443,0.502 0.45,0.502 0.456,0.502C0.561,0.5 0.651,0.431 0.683,0.335C0.689,0.315 0.693,0.295 0.694,0.274L0.726,-0.239C0.728,-0.267 0.725,-0.295 0.717,-0.321C0.7,-0.381 0.66,-0.432 0.607,-0.463C0.595,-0.47 0.584,-0.476 0.571,-0.48C0.549,-0.489 0.524,-0.494 0.499,-0.496L0.318,-0.505C0.282,-0.505 0.232,-0.491 0.232,-0.491L0.162,-0.528L0.136,-0.615L0.111,-0.63L0.032,-0.65L-0.009,-0.588L-0.062,-0.576L-0.107,-0.599L-0.102,-0.669C-0.133,-0.688 -0.173,-0.724 -0.173,-0.724L-0.27,-0.702C-0.272,-0.698 -0.276,-0.69 -0.286,-0.672C-0.291,-0.662 -0.301,-0.647 -0.317,-0.635C-0.338,-0.64 -0.359,-0.644 -0.381,-0.645C-0.574,-0.657 -0.741,-0.499 -0.754,-0.293C-0.76,-0.198 -0.732,-0.109 -0.681,-0.039L-0.701,0.291C-0.71,0.437 -0.638,0.569 -0.523,0.643C-0.472,0.676 -0.412,0.697 -0.348,0.703L-0.196,0.712L-0.196,0.712C-0.191,0.706 -0.186,0.701 -0.182,0.695C-0.178,0.69 -0.174,0.685 -0.17,0.679C-0.168,0.676 -0.165,0.673 -0.163,0.67C-0.169,0.678 -0.175,0.687 -0.182,0.695C-0.186,0.701 -0.191,0.706 -0.196,0.712L-0.196,0.712L-0.163,0.714C-0.159,0.709 -0.154,0.703 -0.15,0.697C-0.122,0.66 -0.097,0.621 -0.077,0.579C-0.058,0.541 -0.043,0.5 -0.031,0.458C-0.028,0.448 -0.026,0.438 -0.024,0.428C-0.016,0.393 -0.01,0.356 -0.008,0.319C-0.007,0.308 -0.007,0.297 -0.007,0.286C-0.007,0.286 -0.007,0.28 -0.007,0.277C-0.007,0.269 -0.007,0.262 -0.007,0.254C-0.007,0.248 -0.008,0.237 -0.008,0.237C-0.011,0.187 -0.019,0.138 -0.032,0.091L-0.032,0.091L-0.033,0.091C-0.033,0.09 -0.033,0.09 -0.033,0.09C-0.036,0.081 -0.038,0.073 -0.041,0.065C-0.042,0.061 -0.043,0.058 -0.044,0.054C-0.046,0.047 -0.049,0.04 -0.051,0.034C-0.081,-0.044 -0.118,-0.078 -0.122,-0.081C-0.123,-0.08 -0.125,-0.074 -0.127,-0.067L-0.127,-0.067C-0.127,-0.067 -0.127,-0.067 -0.127,-0.067Z" style="fill:url(#_Linear22);"/>
                    </g>
                    <g id="Cuerpo1" serif:id="Cuerpo" transform="matrix(-27.179211,436.102783,436.102783,27.179211,-696.006748,715.834747)">
                        <path d="M-0.127,-0.067C-0.129,-0.059 -0.13,-0.051 -0.13,-0.041C-0.13,-0.041 -0.131,-0.041 -0.131,-0.041C-0.131,-0.041 -0.131,-0.041 -0.131,-0.041C-0.131,-0.041 -0.138,-0.054 -0.137,-0.072C-0.137,-0.075 -0.136,-0.078 -0.136,-0.081C-0.134,-0.089 -0.13,-0.098 -0.123,-0.106C-0.123,-0.107 -0.123,-0.107 -0.123,-0.107C-0.107,-0.126 -0.09,-0.133 -0.079,-0.135C-0.073,-0.136 -0.068,-0.136 -0.068,-0.136C-0.068,-0.136 -0.068,-0.136 -0.068,-0.136C-0.068,-0.135 -0.068,-0.135 -0.068,-0.135C-0.068,-0.135 -0.074,-0.133 -0.082,-0.128L-0.082,-0.128C-0.091,-0.123 -0.103,-0.114 -0.109,-0.105C-0.107,-0.104 -0.094,-0.099 -0.077,-0.09L-0.077,-0.09C-0.031,-0.067 0.052,-0.013 0.098,0.089C0.119,0.135 0.132,0.191 0.132,0.258C0.132,0.303 0.129,0.34 0.125,0.37C0.118,0.421 0.106,0.451 0.094,0.467C0.085,0.477 0.077,0.481 0.068,0.482C0.056,0.482 0.045,0.475 0.038,0.465C0.047,0.519 0.117,0.528 0.181,0.504C0.218,0.489 0.262,0.488 0.302,0.491C0.311,0.493 0.437,0.501 0.437,0.501C0.443,0.502 0.45,0.502 0.456,0.502C0.561,0.5 0.651,0.431 0.683,0.335C0.689,0.315 0.693,0.295 0.694,0.274L0.726,-0.239C0.728,-0.267 0.725,-0.295 0.717,-0.321C0.7,-0.381 0.66,-0.432 0.607,-0.463C0.595,-0.47 0.584,-0.476 0.571,-0.48C0.549,-0.489 0.524,-0.494 0.499,-0.496L0.318,-0.505C0.282,-0.505 0.232,-0.491 0.232,-0.491L0.162,-0.528L0.136,-0.615L0.111,-0.63L0.032,-0.65L-0.009,-0.588L-0.062,-0.576L-0.107,-0.599L-0.102,-0.669C-0.133,-0.688 -0.173,-0.724 -0.173,-0.724L-0.27,-0.702C-0.272,-0.698 -0.276,-0.69 -0.286,-0.672C-0.291,-0.662 -0.301,-0.647 -0.317,-0.635C-0.338,-0.64 -0.359,-0.644 -0.381,-0.645C-0.574,-0.657 -0.741,-0.499 -0.754,-0.293C-0.76,-0.198 -0.732,-0.109 -0.681,-0.039L-0.701,0.291C-0.71,0.437 -0.638,0.569 -0.523,0.643C-0.472,0.676 -0.412,0.697 -0.348,0.703L-0.196,0.712L-0.196,0.712C-0.191,0.706 -0.186,0.701 -0.182,0.695C-0.178,0.69 -0.174,0.685 -0.17,0.679C-0.168,0.676 -0.165,0.673 -0.163,0.67C-0.169,0.678 -0.175,0.687 -0.182,0.695C-0.186,0.701 -0.191,0.706 -0.196,0.712L-0.196,0.712L-0.163,0.714C-0.159,0.709 -0.154,0.703 -0.15,0.697C-0.122,0.66 -0.097,0.621 -0.077,0.579C-0.058,0.541 -0.043,0.5 -0.031,0.458C-0.028,0.448 -0.026,0.438 -0.024,0.428C-0.016,0.393 -0.01,0.356 -0.008,0.319C-0.007,0.308 -0.007,0.297 -0.007,0.286C-0.007,0.286 -0.007,0.28 -0.007,0.277C-0.007,0.269 -0.007,0.262 -0.007,0.254C-0.007,0.248 -0.008,0.237 -0.008,0.237C-0.011,0.187 -0.019,0.138 -0.032,0.091L-0.032,0.091L-0.033,0.091C-0.033,0.09 -0.033,0.09 -0.033,0.09C-0.036,0.081 -0.038,0.073 -0.041,0.065C-0.042,0.061 -0.043,0.058 -0.044,0.054C-0.046,0.047 -0.049,0.04 -0.051,0.034C-0.081,-0.044 -0.118,-0.078 -0.122,-0.081C-0.123,-0.08 -0.125,-0.074 -0.127,-0.067L-0.127,-0.067C-0.127,-0.067 -0.127,-0.067 -0.127,-0.067Z" style="fill:url(#_Linear23);"/>
                    </g>
                    <g id="Cuerpo2" serif:id="Cuerpo" transform="matrix(-27.179211,436.102783,436.102783,27.179211,-696.006748,715.834747)">
                        <path d="M-0.077,-0.09C-0.031,-0.067 0.052,-0.013 0.098,0.089C0.119,0.135 0.132,0.191 0.132,0.258C0.132,0.303 0.129,0.34 0.125,0.37C0.118,0.421 0.106,0.451 0.094,0.467C0.085,0.477 0.077,0.481 0.068,0.482C0.056,0.482 0.045,0.475 0.038,0.465C0.047,0.519 0.117,0.528 0.181,0.504C0.218,0.489 0.262,0.488 0.302,0.491C0.311,0.493 0.437,0.501 0.437,0.501C0.443,0.502 0.45,0.502 0.456,0.502C0.561,0.5 0.651,0.431 0.683,0.335C0.689,0.315 0.693,0.295 0.694,0.274L0.726,-0.239C0.728,-0.267 0.725,-0.295 0.717,-0.321C0.7,-0.381 0.66,-0.432 0.607,-0.463C0.595,-0.47 0.584,-0.476 0.571,-0.48C0.549,-0.489 0.524,-0.494 0.499,-0.496L0.318,-0.505C0.282,-0.505 0.232,-0.491 0.232,-0.491L0.162,-0.528L0.136,-0.615L0.111,-0.63L0.032,-0.65L-0.009,-0.588L-0.062,-0.576L-0.107,-0.599L-0.102,-0.669C-0.133,-0.688 -0.173,-0.724 -0.173,-0.724L-0.27,-0.702C-0.272,-0.698 -0.276,-0.69 -0.286,-0.672C-0.291,-0.662 -0.301,-0.647 -0.317,-0.635C-0.332,-0.622 -0.353,-0.612 -0.38,-0.61L-0.385,-0.61C-0.467,-0.615 -0.544,-0.586 -0.603,-0.534C-0.669,-0.477 -0.714,-0.39 -0.72,-0.292C-0.724,-0.221 -0.708,-0.154 -0.677,-0.098C-0.668,-0.083 -0.659,-0.068 -0.648,-0.054C-0.648,-0.052 -0.648,-0.049 -0.648,-0.046C-0.648,-0.038 -0.65,-0.003 -0.65,-0.003C-0.652,0.031 -0.655,0.08 -0.659,0.133L-0.672,0.338C-0.679,0.463 -0.619,0.577 -0.523,0.643C-0.472,0.676 -0.412,0.697 -0.348,0.703L-0.196,0.712L-0.196,0.712C-0.192,0.706 -0.187,0.7 -0.182,0.694C-0.121,0.617 -0.076,0.529 -0.053,0.433C-0.048,0.409 -0.044,0.384 -0.041,0.357C-0.035,0.311 -0.034,0.269 -0.035,0.23C-0.042,0.129 -0.072,0.032 -0.12,-0.055C-0.122,-0.059 -0.125,-0.063 -0.127,-0.066L-0.127,-0.067C-0.129,-0.059 -0.13,-0.051 -0.13,-0.041C-0.13,-0.041 -0.131,-0.041 -0.131,-0.041C-0.131,-0.041 -0.131,-0.041 -0.131,-0.041C-0.131,-0.041 -0.138,-0.054 -0.137,-0.072C-0.137,-0.075 -0.136,-0.078 -0.136,-0.081C-0.134,-0.089 -0.13,-0.098 -0.123,-0.106C-0.123,-0.107 -0.123,-0.107 -0.123,-0.107C-0.107,-0.126 -0.09,-0.133 -0.079,-0.135C-0.073,-0.136 -0.068,-0.136 -0.068,-0.136C-0.068,-0.136 -0.068,-0.136 -0.068,-0.136C-0.068,-0.135 -0.068,-0.135 -0.068,-0.135C-0.068,-0.135 -0.074,-0.133 -0.082,-0.128C-0.082,-0.128 -0.082,-0.128 -0.082,-0.128C-0.091,-0.123 -0.103,-0.114 -0.109,-0.105C-0.107,-0.104 -0.094,-0.099 -0.077,-0.09L-0.077,-0.09Z" style="fill:url(#_Linear24);"/>
                        <path d="M-0.077,-0.09C-0.031,-0.067 0.052,-0.013 0.098,0.089C0.119,0.135 0.132,0.191 0.132,0.258C0.132,0.303 0.129,0.34 0.125,0.37C0.118,0.421 0.106,0.451 0.094,0.467C0.085,0.477 0.077,0.481 0.068,0.482C0.056,0.482 0.045,0.475 0.038,0.465C0.047,0.519 0.117,0.528 0.181,0.504C0.218,0.489 0.262,0.488 0.302,0.491C0.311,0.493 0.437,0.501 0.437,0.501C0.443,0.502 0.45,0.502 0.456,0.502C0.561,0.5 0.651,0.431 0.683,0.335C0.689,0.315 0.693,0.295 0.694,0.274L0.726,-0.239C0.728,-0.267 0.725,-0.295 0.717,-0.321C0.7,-0.381 0.66,-0.432 0.607,-0.463C0.595,-0.47 0.584,-0.476 0.571,-0.48C0.549,-0.489 0.524,-0.494 0.499,-0.496L0.318,-0.505C0.282,-0.505 0.232,-0.491 0.232,-0.491L0.162,-0.528L0.136,-0.615L0.111,-0.63L0.032,-0.65L-0.009,-0.588L-0.062,-0.576L-0.107,-0.599L-0.102,-0.669C-0.133,-0.688 -0.173,-0.724 -0.173,-0.724L-0.27,-0.702C-0.272,-0.698 -0.276,-0.69 -0.286,-0.672C-0.291,-0.662 -0.301,-0.647 -0.317,-0.635C-0.332,-0.622 -0.353,-0.612 -0.38,-0.61L-0.385,-0.61C-0.467,-0.615 -0.544,-0.586 -0.603,-0.534C-0.669,-0.477 -0.714,-0.39 -0.72,-0.292C-0.724,-0.221 -0.708,-0.154 -0.677,-0.098C-0.668,-0.083 -0.659,-0.068 -0.648,-0.054C-0.648,-0.052 -0.648,-0.049 -0.648,-0.046C-0.648,-0.038 -0.65,-0.003 -0.65,-0.003C-0.652,0.031 -0.655,0.08 -0.659,0.133L-0.672,0.338C-0.679,0.463 -0.619,0.577 -0.523,0.643C-0.472,0.676 -0.412,0.697 -0.348,0.703L-0.196,0.712L-0.196,0.712C-0.192,0.706 -0.187,0.7 -0.182,0.694C-0.121,0.617 -0.076,0.529 -0.053,0.433C-0.048,0.409 -0.044,0.384 -0.041,0.357C-0.035,0.311 -0.034,0.269 -0.035,0.23C-0.042,0.129 -0.072,0.032 -0.12,-0.055C-0.122,-0.059 -0.125,-0.063 -0.127,-0.066L-0.127,-0.067C-0.129,-0.059 -0.13,-0.051 -0.13,-0.041C-0.13,-0.041 -0.131,-0.041 -0.131,-0.041C-0.131,-0.041 -0.131,-0.041 -0.131,-0.041C-0.131,-0.041 -0.138,-0.054 -0.137,-0.072C-0.137,-0.075 -0.136,-0.078 -0.136,-0.081C-0.134,-0.089 -0.13,-0.098 -0.123,-0.106C-0.123,-0.107 -0.123,-0.107 -0.123,-0.107C-0.107,-0.126 -0.09,-0.133 -0.079,-0.135C-0.073,-0.136 -0.068,-0.136 -0.068,-0.136C-0.068,-0.136 -0.068,-0.136 -0.068,-0.136C-0.068,-0.135 -0.068,-0.135 -0.068,-0.135C-0.068,-0.135 -0.074,-0.133 -0.082,-0.128C-0.082,-0.128 -0.082,-0.128 -0.082,-0.128C-0.091,-0.123 -0.103,-0.114 -0.109,-0.105C-0.107,-0.104 -0.094,-0.099 -0.077,-0.09L-0.077,-0.09Z" style="fill:url(#_Linear25);"/>
                    </g>
                    <g id="Contorno-Superior" serif:id="Contorno Superior" transform="matrix(1.575221,0,0,2.130597,-1610.247788,40.884328)">
                        <path d="M771.436,285.741L771.436,254.505C770.944,239.872 764.325,229.573 756.131,218.708C739.442,198.141 711.479,184.35 676.706,184.35L628.514,183.649C613.874,183.655 600.288,183.658 590.763,183.649L589.942,183.649C584.793,183.644 580.92,183.635 578.837,183.622C578.055,183.617 577.303,183.565 576.583,183.474C572.964,181.112 569.072,178.946 564.942,177C549.857,169.895 531.603,165.736 511.945,165.736C460.153,165.736 418.104,194.606 418.104,230.167L418.105,230.574L418.055,231.175C417.079,236.762 413.854,240.878 410.176,243.844C409.009,239.537 408.399,235.095 408.399,230.555C408.399,190.921 454.907,158.744 512.193,158.744C538.73,158.744 562.954,165.648 581.313,177L673.154,177C713.662,177 748.984,193.548 767.417,217.991C775.61,228.856 780.467,241.28 780.959,254.505L780.959,285.741L780.879,285.801C779.229,286.703 777.563,287.585 775.88,288.447C774.396,289.207 772.899,289.952 771.39,290.682L771.39,285.776L771.436,285.741Z" style="fill:url(#_Linear26);"/>
                    </g>
                    <g id="Labio-Inferior" serif:id="Labio Inferior" transform="matrix(1,0,0,1,-1304,0)">
                        <g>
                            <g transform="matrix(0.997542,0,0,0.997542,1.368532,1.800782)">
                                <g transform="matrix(-86.553833,56.690233,54.001557,82.448802,652.477863,724.239321)">
                                    <path d="M-1.167,1.355L-1.073,1.381C-0.773,1.393 -0.256,0.992 -0.194,0.943C0.718,0.235 0.554,-0.679 0.527,-0.83L0.494,-0.977L0.382,-0.998L0.416,-0.843L0.416,-0.843C0.431,-0.756 0.521,-0.219 0.253,0.251C0.064,0.579 -0.182,0.781 -0.228,0.819L-0.657,1.123C-0.763,1.183 -0.892,1.235 -1.017,1.231C-1.06,1.23 -1.1,1.221 -1.132,1.19C-1.169,1.152 -1.176,1.099 -1.165,1.05C-1.23,1.132 -1.275,1.285 -1.167,1.355Z" style="fill:rgb(62,209,255);"/>
                                </g>
                            </g>
                        </g>
                    </g>
                    <g id="Boca" transform="matrix(-77.324432,50.645245,50.645245,77.324432,-650.408869,716.094006)">
                        <path d="M0.689,-0.934C0.714,-0.922 0.73,-0.913 0.73,-0.913C0.731,-0.912 0.732,-0.912 0.732,-0.913C0.733,-0.914 0.733,-0.915 0.733,-0.915C0.733,-0.915 0.709,-0.953 0.655,-0.987C0.627,-1.004 0.591,-1.021 0.546,-1.031C0.523,-1.036 0.498,-1.04 0.47,-1.041C0.47,-1.041 0.466,-1.041 0.464,-1.041C0.413,-1.042 0.37,-1.031 0.334,-1.015C0.32,-1.009 0.307,-1.002 0.295,-0.994C0.226,-0.948 0.196,-0.886 0.196,-0.886C0.195,-0.886 0.196,-0.885 0.196,-0.884C0.197,-0.883 0.198,-0.883 0.199,-0.884C0.233,-0.91 0.272,-0.929 0.304,-0.942L0.304,-0.941L0.304,-0.942L0.306,-0.942C0.339,-0.956 0.366,-0.963 0.374,-0.965C0.372,-0.938 0.347,-0.703 0.138,-0.37C0.12,-0.343 0.102,-0.315 0.082,-0.286C0.072,-0.272 0.062,-0.257 0.051,-0.243C0.028,-0.211 0.002,-0.177 -0.025,-0.144C-0.025,-0.143 -0.025,-0.142 -0.025,-0.142L-0.023,-0.137L-0.025,-0.136C0.002,-0.062 0.053,0.092 0.064,0.232C0.072,0.326 0.062,0.414 0.013,0.464C-0.037,0.516 -0.119,0.517 -0.205,0.497C-0.32,0.471 -0.442,0.406 -0.507,0.368L-0.508,0.369C-0.528,0.386 -0.549,0.403 -0.569,0.419C-0.598,0.442 -0.627,0.465 -0.657,0.487C-0.634,0.621 -0.584,0.972 -0.698,1.062C-0.803,1.145 -0.986,1.056 -1.126,0.962C-1.174,1.048 -1.213,1.121 -1.225,1.144C-1.232,1.156 -1.237,1.169 -1.241,1.182L-1.243,1.185C-1.243,1.186 -1.242,1.187 -1.242,1.188L-1.241,1.188C-1.258,1.244 -1.255,1.307 -1.219,1.35C-1.194,1.38 -1.153,1.401 -1.091,1.403C-0.94,1.409 -0.662,1.305 -0.191,0.957C0.63,0.35 0.596,-0.47 0.536,-0.818C0.52,-0.911 0.502,-0.971 0.498,-0.983C0.564,-0.986 0.643,-0.955 0.689,-0.934Z" style="fill:url(#_Radial27);"/>
                    </g>
                    <g id="Piños">
                        <g transform="matrix(1.639719,0.351659,-0.205847,0.959825,-1547.149374,-73.05898)">
                            <path d="M617.161,583.83C619.005,590.474 623.089,604.098 628.117,614.098C631.517,620.861 635.341,625.98 639.202,626.045C643.162,626.112 646.386,620.74 648.936,613.697C652.356,604.244 654.547,591.754 655.578,584.915C642.644,586.942 629.788,586.518 617.161,583.83Z" style="fill:white;"/>
                        </g>
                        <g transform="matrix(-0.092649,-1.113438,-1.074929,0.089444,-536.341028,706.065697)">
                            <path d="M-26.052,-18.002C-38.408,-11.251 -52.066,-1.087 -50.192,10.199C-48.158,22.456 -20.694,33.047 -10.008,36.727C-10.161,35.63 -10.308,34.532 -10.448,33.431L-10.471,33.252C-11.023,28.904 -11.478,24.524 -11.835,20.114C-13.057,4.984 -13.074,-9.99 -11.962,-24.723C-15.394,-23.297 -20.436,-21.051 -25.749,-18.167L-26.052,-18.002Z" style="fill:rgb(254,254,252);"/>
                        </g>
                        <g transform="matrix(1.009635,0,0,1.137876,-468.974753,694.926552)">
                            <path d="M-26.088,17.372C-21.726,27.343 -12.287,44.948 0,44.948C12.842,44.948 22.992,16.809 27.275,2.698C10.131,9.016 -7.704,13.954 -26.088,17.372Z" style="fill:rgb(254,254,252);"/>
                        </g>
                    </g>
                    <g>
                        <g transform="matrix(1.639719,0.351659,-0.205847,0.959825,-1547.149374,-73.05898)">
                            <path d="M617.161,583.83C619.005,590.474 623.089,604.098 628.117,614.098C631.517,620.861 635.341,625.98 639.202,626.045C643.162,626.112 646.386,620.74 648.936,613.697C652.356,604.244 654.547,591.754 655.578,584.915C642.644,586.942 629.788,586.518 617.161,583.83Z" style="fill:white;"/>
                        </g>
                        <g transform="matrix(-0.092649,-1.113438,-1.074929,0.089444,-536.341028,706.065697)">
                            <path d="M-26.052,-18.002C-38.408,-11.251 -52.066,-1.087 -50.192,10.199C-48.158,22.456 -20.694,33.047 -10.008,36.727C-10.161,35.63 -10.308,34.532 -10.448,33.431L-10.471,33.252C-11.023,28.904 -11.478,24.524 -11.835,20.114C-13.057,4.984 -13.074,-9.99 -11.962,-24.723C-15.394,-23.297 -20.436,-21.051 -25.749,-18.167L-26.052,-18.002Z" style="fill:rgb(254,254,252);"/>
                        </g>
                        <g transform="matrix(1.009635,0,0,1.137876,-468.974753,694.926552)">
                            <path d="M-26.088,17.372C-21.726,27.343 -12.287,44.948 0,44.948C12.842,44.948 22.992,16.809 27.275,2.698C10.131,9.016 -7.704,13.954 -26.088,17.372Z" style="fill:rgb(254,254,252);"/>
                        </g>
                    </g>
                    <g id="Labio-Superior" serif:id="Labio Superior" transform="matrix(0.764565,0,0,1.17518,-1028.032727,-73.311319)">
                        <path d="M696.808,670.548C691.03,671.336 685.211,672.04 679.353,672.659C658.771,674.834 637.713,675.958 616.291,675.951C610.045,675.949 603.831,675.851 597.651,675.659L597.396,675.651C595.831,675.602 594.269,675.546 592.708,675.485C588.206,675.308 583.721,675.081 579.257,674.805C576.096,674.609 572.944,674.389 569.803,674.144L569.559,674.125C541.27,671.91 513.808,667.717 487.449,661.742L487.19,661.683L487.066,661.339C487.048,661.288 486.989,661.246 486.912,661.23C481.926,660.176 477.167,659.083 472.627,657.962C470.605,657.462 468.626,656.957 466.69,656.447C462.766,655.413 459.019,654.361 455.444,653.298C412.272,640.457 394.167,626.035 392.153,624.353C393.11,624.139 396.292,623.461 400.594,622.9L400.798,622.871C450.342,644.339 506.919,657.959 567.182,663.008C589.169,664.489 613.356,664.964 639.768,663.985C655.201,663.413 669.818,662.093 683.329,660.82C739.23,654.32 791.042,640.895 837.104,620.127C840.572,618.564 847.5,615.218 847.5,615.218L847.568,627.378C844.114,628.971 840.625,630.529 837.104,632.052C815.05,641.589 791.699,649.741 767.286,656.338C744.644,662.457 721.088,667.238 696.808,670.548Z" style="fill:url(#_Linear28);"/>
                    </g>
                    <g id="Sombra6" serif:id="Sombra" transform="matrix(-1.131877,0.421017,0.450172,1.21026,-598.929022,232.121636)">
                        <g style="filter:url(#_Effect29);">
                            <circle cx="130.5" cy="516.5" r="54.5" style="fill:rgb(0,38,109);fill-opacity:0.72;"/>
                        </g>
                    </g>
                    <g id="Sombra7" serif:id="Sombra" transform="matrix(-1.166504,0.433896,0.421585,1.133406,-966.001593,270.136245)">
                        <g style="filter:url(#_Effect30);">
                            <circle cx="130.5" cy="516.5" r="54.5" style="fill:rgb(0,38,109);fill-opacity:0.72;"/>
                        </g>
                    </g>
                    <g id="Manoncia" transform="matrix(1,0,0,1,403.51884,718.880086)">
                        <g transform="matrix(1.440367,0,0,1.100917,-1107.22731,-334.256826)">
                            <g style="filter:url(#_Effect31);">
                                <circle cx="130.5" cy="516.5" r="54.5" style="fill:rgb(4,78,198);fill-opacity:0.6;"/>
                            </g>
                        </g>
                        <g transform="matrix(-0.825688,0,0,0.834862,-838.373118,-214.339395)">
                            <g style="filter:url(#_Effect32);">
                                <circle cx="130.5" cy="516.5" r="54.5" style="fill:rgb(0,40,104);fill-opacity:0.5;"/>
                            </g>
                        </g>
                        <g transform="matrix(1,0,0,1,-955.337506,222.588994)">
                            <path d="M22.575,36.96C13.474,28.716 0.263,15.715 -14.708,-2.255L-15.458,-3.157C-29.131,-19.655 -36.407,-35.073 -37.096,-49.183C-29.723,-40.879 -16.997,-26.13 -7.622,-13.044C-4.653,-8.9 -2.02,-4.922 0,-1.369C7.851,12.441 20.809,25.219 36.773,27.133C44.261,28.031 52.41,26.539 61.003,21.641C61.003,21.641 52.293,30.978 33.693,30.441C29.945,30.333 25.794,29.823 21.233,28.756L35.448,47.814C35.448,47.814 30.616,44.244 22.575,36.96Z" style="fill:rgb(2,49,149);"/>
                        </g>
                        <g transform="matrix(1.033557,0,0,1.069444,-1090.020134,66.666667)">
                            <path d="M106.372,74.983C120.031,58.536 141.002,48 164.5,48C205.618,48 239,80.262 239,120C239,140.852 229.808,159.645 215.131,172.799C204.474,182.349 188.963,191.001 175.905,191.16C171.533,191.342 168.533,190.97 164.607,190.506L150.853,172.686C177.167,178.637 189.332,166.033 189.332,166.033C163.293,180.377 141.47,163.489 130.309,144.517C128.119,140.793 125.183,136.57 121.88,132.188C122.315,132.05 122.747,131.894 123.175,131.72C134.122,127.285 138.383,113.021 132.685,99.886C126.988,86.752 113.475,79.689 102.528,84.125C101.131,84.691 99.783,85.695 98.61,86.558C100.813,82.553 103.456,78.494 106.372,74.983Z" style="fill:url(#_Linear33);"/>
                        </g>
                        <g transform="matrix(1.033557,0,0,1.069444,-1090.020134,66.666667)">
                            <path d="M106.372,74.983C120.031,58.536 141.002,48 164.5,48C205.618,48 239,80.262 239,120C239,140.852 229.808,159.645 215.131,172.799C228.076,156.715 235.658,136.298 232.955,115.285C228.713,82.311 202.31,55.17 162.73,55.171C162.206,55.171 161.675,55.175 161.146,55.185C138.529,55.593 119.108,65.937 106.372,74.983Z" style="fill:rgb(62,205,248);"/>
                        </g>
                        <g transform="matrix(0.681208,1.038607,-0.992795,0.651161,-994.155276,-219.657951)">
                            <path d="M257.632,170.418C256.063,166.432 255,161.427 255,157C255,141.546 266.874,129 281.5,129C296.126,129 308,141.546 308,157C308,164.313 305.587,171.37 301.235,176.359C301.313,176.04 301.4,175.656 301.458,175.328C303.26,165.169 294.743,154.833 282.687,152.492C270.63,150.151 259.712,156.572 257.91,166.731C257.701,167.909 257.579,169.253 257.632,170.418Z" style="fill:url(#_Linear34);"/>
                        </g>
                        <g transform="matrix(0.681208,1.038607,-0.992795,0.651161,-994.155276,-219.236068)">
                            <path d="M260.084,173.767C260.042,174.131 260.136,174.522 260.036,174.895C259.375,173.846 258.588,172.754 257.989,171.671C257.734,171.138 257.395,170.625 257.275,170.029C257.194,169.169 257.295,167.687 257.503,166.51C259.306,156.35 270.558,150.003 282.614,152.344C294.671,154.685 303.01,164.842 301.207,175.001C301.149,175.329 300.95,176.166 300.95,176.166C300.95,176.166 298.563,176.301 297.423,176.379C297.645,174.907 297.752,173.535 297.72,172.245C297.726,169.699 297.096,167.529 295.702,165.442C295.395,164.975 295.049,164.516 294.662,164.064C293.982,163.256 293.181,162.45 292.251,161.63C290.453,160.044 288.07,158.696 285.412,157.746C280.034,155.648 274.117,155.483 269.275,157.828C267.116,158.816 265.186,160.304 263.667,162.389C263.598,162.484 263.529,162.58 263.462,162.675C263.053,163.228 262.669,163.818 262.312,164.446C260.877,166.969 260.426,168.814 260.268,170.357C260.102,171.472 260.047,172.604 260.084,173.767Z" style="fill:url(#_Linear35);"/>
                        </g>
                        <g transform="matrix(0.983607,0,0,0.923077,-1236.590164,80.076923)">
                            <path d="M316.703,182.098C326.382,173.298 327.764,158.07 315.77,144.599C309.494,137.55 298.097,133.437 288.119,139.821C288.135,137.542 288.333,135.29 288.713,133.094C292.067,131.741 295.703,131 299.5,131C316.333,131 330,145.563 330,163.5C330,171.169 327.502,178.222 323.326,183.783L323.278,183.776C320.982,183.48 318.747,182.947 316.579,182.21L316.703,182.098Z" style="fill:url(#_Linear36);"/>
                        </g>
                        <g transform="matrix(0.893638,1.118578,-0.933269,0.745594,-1022.972247,-218.106358)">
                            <path d="M260.436,173.984C257.026,169.272 255,163.384 255,157C255,141.546 266.874,129 281.5,129C296.126,129 308,141.546 308,157C308,164.425 305.259,171.179 300.788,176.193C300.796,176.184 300.804,176.174 300.812,176.165C299.801,170.796 297.32,165.787 293.457,162.088C284.421,153.437 271.225,155.205 264.007,166.034C262.379,168.477 261.193,171.173 260.436,173.984Z" style="fill:url(#_Linear37);"/>
                        </g>
                        <g transform="matrix(1.008952,0,0,1.019624,-975.438424,213.945753)">
                            <path d="M-1.927,-5.938C-15.217,-2.872 -30.055,0.387 -34.586,-6.383C-39.337,-13.483 -32.427,-28.977 -22.718,-40.462C-21.544,-41.851 -20.409,-43.146 -19.284,-44.337C-17.938,-45.763 -16.606,-47.039 -15.242,-48.146C-10.965,-51.619 -6.372,-53.427 0,-52.975C13.881,-51.991 21.541,-34.684 20.225,-23.782C19.247,-15.68 16.146,-11.761 8.973,-8.982C6.495,-8.021 3.531,-7.197 0,-6.383L-1.927,-5.938Z" style="fill:url(#_Linear38);"/>
                        </g>
                        <g transform="matrix(-0.739582,-0.673067,-0.673067,0.739582,-969.61141,235.105107)">
                            <path d="M6.305,-22.004C6.959,-38.842 -6.816,-46.098 -17.751,-45.295C-34.918,-44.034 -43.373,-32.631 -41.707,-20.155C-41.361,-17.568 -40.581,-14.935 -39.353,-12.336C-32.201,2.796 -23.898,18.898 -17.751,20.028C-11.604,21.159 -3.681,12.908 4.284,-11.458C5.546,-15.32 6.181,-18.832 6.305,-22.004Z" style="fill:url(#_Linear39);"/>
                        </g>
                    </g>
                    <g id="Manoncia1" serif:id="Manoncia" transform="matrix(-1,0,0,1,-1818.125411,718.880086)">
                        <g transform="matrix(1.440367,0,0,1.100917,-1107.22731,-334.256826)">
                            <g style="filter:url(#_Effect40);">
                                <circle cx="130.5" cy="516.5" r="54.5" style="fill:rgb(4,78,198);fill-opacity:0.6;"/>
                            </g>
                        </g>
                        <g transform="matrix(-0.825688,0,0,0.834862,-838.373118,-214.339395)">
                            <g style="filter:url(#_Effect41);">
                                <circle cx="130.5" cy="516.5" r="54.5" style="fill:rgb(0,40,104);fill-opacity:0.5;"/>
                            </g>
                        </g>
                        <g transform="matrix(1,0,0,1,-955.337506,222.588994)">
                            <path d="M22.575,36.96C13.474,28.716 0.263,15.715 -14.708,-2.255L-15.458,-3.157C-29.131,-19.655 -36.407,-35.073 -37.096,-49.183C-29.723,-40.879 -16.997,-26.13 -7.622,-13.044C-4.653,-8.9 -2.02,-4.922 0,-1.369C7.851,12.441 20.809,25.219 36.773,27.133C44.261,28.031 52.41,26.539 61.003,21.641C61.003,21.641 52.293,30.978 33.693,30.441C29.945,30.333 25.794,29.823 21.233,28.756L35.448,47.814C35.448,47.814 30.616,44.244 22.575,36.96Z" style="fill:rgb(2,49,149);"/>
                        </g>
                        <g transform="matrix(1.033557,0,0,1.069444,-1090.020134,66.666667)">
                            <path d="M106.372,74.983C103.456,78.494 100.813,82.553 98.61,86.558C99.783,85.695 101.131,84.691 102.528,84.125C113.475,79.689 126.988,86.752 132.685,99.886C138.383,113.021 134.122,127.285 123.175,131.72C122.747,131.894 122.315,132.05 121.88,132.188C125.183,136.57 128.119,140.793 130.309,144.517C141.47,163.489 163.293,180.377 189.332,166.033C189.332,166.033 177.167,178.637 150.853,172.686L164.607,190.506C168.533,190.97 171.533,191.342 175.905,191.16C188.963,191.001 204.474,182.349 215.131,172.799C229.808,159.645 239,140.852 239,120C239,80.262 205.618,48 164.5,48C141.002,48 120.031,58.536 106.372,74.983Z" style="fill:url(#_Linear42);"/>
                        </g>
                        <g transform="matrix(1.033557,0,0,1.069444,-1090.020134,66.666667)">
                            <path d="M106.372,74.983C120.031,58.536 141.002,48 164.5,48C205.618,48 239,80.262 239,120C239,140.852 229.808,159.645 215.131,172.799C228.076,156.715 235.658,136.298 232.955,115.285C228.713,82.311 202.31,55.17 162.73,55.171C162.206,55.171 161.675,55.175 161.146,55.185C138.529,55.593 119.108,65.937 106.372,74.983Z" style="fill:rgb(62,205,248);"/>
                        </g>
                        <g transform="matrix(0.681208,1.038607,-0.992795,0.651161,-994.155276,-219.657951)">
                            <path d="M257.632,170.418C256.063,166.432 255,161.427 255,157C255,141.546 266.874,129 281.5,129C296.126,129 308,141.546 308,157C308,164.313 305.587,171.37 301.235,176.359C301.313,176.04 301.4,175.656 301.458,175.328C303.26,165.169 294.743,154.833 282.687,152.492C270.63,150.151 259.712,156.572 257.91,166.731C257.701,167.909 257.579,169.253 257.632,170.418Z" style="fill:url(#_Linear43);"/>
                        </g>
                        <g transform="matrix(0.681208,1.038607,-0.992795,0.651161,-994.155276,-219.236068)">
                            <path d="M260.084,173.767C260.042,174.131 260.136,174.522 260.036,174.895C259.375,173.846 258.588,172.754 257.989,171.671C257.734,171.138 257.395,170.625 257.275,170.029C257.194,169.169 257.295,167.687 257.503,166.51C259.306,156.35 270.558,150.003 282.614,152.344C294.671,154.685 303.01,164.842 301.207,175.001C301.149,175.329 300.95,176.166 300.95,176.166C300.95,176.166 298.563,176.301 297.423,176.379C297.645,174.907 297.752,173.535 297.72,172.245C297.726,169.699 297.096,167.529 295.702,165.442C295.395,164.975 295.049,164.516 294.662,164.064C293.982,163.256 293.181,162.45 292.251,161.63C290.453,160.044 288.07,158.696 285.412,157.746C280.034,155.648 274.117,155.483 269.275,157.828C267.116,158.816 265.186,160.304 263.667,162.389C263.598,162.484 263.529,162.58 263.462,162.675C263.053,163.228 262.669,163.818 262.312,164.446C260.877,166.969 260.426,168.814 260.268,170.357C260.102,171.472 260.047,172.604 260.084,173.767Z" style="fill:url(#_Linear44);"/>
                        </g>
                        <g transform="matrix(0.983607,0,0,0.923077,-1236.590164,80.076923)">
                            <path d="M316.703,182.098C326.382,173.298 327.764,158.07 315.77,144.599C309.494,137.55 298.097,133.437 288.119,139.821C288.135,137.542 288.333,135.29 288.713,133.094C292.067,131.741 295.703,131 299.5,131C316.333,131 330,145.563 330,163.5C330,171.169 327.502,178.222 323.326,183.783L323.278,183.776C320.982,183.48 318.747,182.947 316.579,182.21L316.703,182.098Z" style="fill:url(#_Linear45);"/>
                        </g>
                        <g transform="matrix(0.893638,1.118578,-0.933269,0.745594,-1022.972247,-218.106358)">
                            <path d="M260.436,173.984C257.026,169.272 255,163.384 255,157C255,141.546 266.874,129 281.5,129C296.126,129 308,141.546 308,157C308,164.425 305.259,171.179 300.788,176.193C300.796,176.184 300.804,176.174 300.812,176.165C299.801,170.796 297.32,165.787 293.457,162.088C284.421,153.437 271.225,155.205 264.007,166.034C262.379,168.477 261.193,171.173 260.436,173.984Z" style="fill:url(#_Linear46);"/>
                        </g>
                        <g transform="matrix(1.008952,0,0,1.019624,-975.438424,213.945753)">
                            <path d="M-1.927,-5.938C-15.217,-2.872 -30.055,0.387 -34.586,-6.383C-39.337,-13.483 -32.427,-28.977 -22.718,-40.462C-21.544,-41.851 -20.409,-43.146 -19.284,-44.337C-17.938,-45.763 -16.606,-47.039 -15.242,-48.146C-10.965,-51.619 -6.372,-53.427 0,-52.975C13.881,-51.991 21.541,-34.684 20.225,-23.782C19.247,-15.68 16.146,-11.761 8.973,-8.982C6.495,-8.021 3.531,-7.197 0,-6.383L-1.927,-5.938Z" style="fill:url(#_Linear47);"/>
                        </g>
                        <g transform="matrix(-0.739582,-0.673067,-0.673067,0.739582,-969.61141,235.105107)">
                            <path d="M6.305,-22.004C6.959,-38.842 -6.816,-46.098 -17.751,-45.295C-34.918,-44.034 -43.373,-32.631 -41.707,-20.155C-41.361,-17.568 -40.581,-14.935 -39.353,-12.336C-32.201,2.796 -23.898,18.898 -17.751,20.028C-11.604,21.159 -3.681,12.908 4.284,-11.458C5.546,-15.32 6.181,-18.832 6.305,-22.004Z" style="fill:url(#_Linear48);"/>
                        </g>
                    </g>
                    <g id="Manchas">
                        <g transform="matrix(-27.179211,436.102783,436.102783,27.179211,-696.006748,715.834747)">
                            <path d="M0.165,-0.417L0.163,-0.377L0.131,-0.354L0.093,-0.365L0.077,-0.401L0.096,-0.436L0.135,-0.443L0.165,-0.417Z" style="fill:url(#_Linear49);"/>
                        </g>
                        <g transform="matrix(-27.179211,436.102783,436.102783,27.179211,-696.006748,715.834747)">
                            <path d="M0.052,-0.53L0.05,-0.49L0.018,-0.467L-0.02,-0.478L-0.035,-0.514L-0.016,-0.549L0.023,-0.556L0.052,-0.53Z" style="fill:url(#_Linear50);"/>
                        </g>
                    </g>
                </g>
                <g id="Nariz">
                    <g transform="matrix(0.764447,0,0,1.174999,-1037.986536,-62.199937)">
                        <path d="M720.616,534.754C730.411,528.663 730.51,515.695 720.132,503.999C708.608,491.015 688.54,484.518 675.307,489.489C668.494,492.048 664.831,497.15 664.443,503.268C664.077,509.033 666.62,515.7 672.211,521.999C683.731,534.983 703.801,541.48 717.034,536.509C718.346,536.016 719.538,535.424 720.616,534.754Z" style="fill:url(#_Radial51);"/>
                    </g>
                    <g transform="matrix(0.764447,0,0,1.174999,-1037.986536,-62.199937)">
                        <path d="M718.083,536.083C718.989,535.687 719.832,535.241 720.616,534.754C730.411,528.663 730.51,515.695 720.132,503.999C708.608,491.015 688.54,484.518 675.307,489.489C672.773,490.441 670.676,491.744 669.02,493.32C669.362,493.171 669.714,493.029 670.074,492.893C683.307,487.922 703.376,494.419 714.899,507.403C724.217,517.903 725.089,529.428 718.083,536.083Z" style="fill:url(#_Linear52);"/>
                    </g>
                </g>
                <g id="Ojo" transform="matrix(1.137132,-0.056011,0.056011,1.137132,-1001.236274,17.045026)">
                    <g transform="matrix(1.513158,0,0,1.544444,91.460526,-330.688889)">
                        <path d="M5.711,534.228C5.666,535.107 5.643,535.993 5.643,536.885C5.643,547.961 9.171,558.08 14.981,565.785C7.608,557.575 3,545.92 3,533C3,527.597 3.806,522.415 5.283,517.614C10.595,500.345 24.59,488 41,488C53.229,488 64.116,494.855 71.068,505.494C73.801,509.676 75.926,514.442 77.285,519.605C76.523,517.538 75.629,515.552 74.614,513.664C68.004,501.362 56.303,493.18 42.983,493.18C23.137,493.18 6.886,511.342 5.711,534.228Z" style="fill:rgb(4,26,124);"/>
                    </g>
                    <g transform="matrix(1.035314,-0.160131,0.146975,0.950254,-25.922511,63.677452)">
                        <g style="filter:url(#_Effect53);">
                            <path d="M59.171,436.236C66.476,409.847 85.592,391 108,391C129.429,391 147.847,408.237 155.805,432.822C148.278,414.262 134.282,400.762 116.827,397.82C93.403,393.873 70.645,410.102 59.171,436.236Z" style="fill:rgb(27,183,248);"/>
                        </g>
                    </g>
                    <path d="M114.13,543.135C105.338,531.234 100,515.606 100,498.5C100,461.246 125.317,431 156.5,431C179.751,431 199.74,447.815 208.405,471.813C210.091,478.348 211,485.297 211,492.5C211,510.791 205.142,527.44 195.571,539.855C187.966,538.051 179.838,537.535 171.516,538.543C155.984,540.423 142.376,547.295 132.4,557.164C125.575,553.904 119.388,549.11 114.13,543.135Z" style="fill:rgb(252,252,252);"/>
                    <g transform="matrix(0.900495,0,-0,0.900495,17.447023,53.488271)">
                        <g transform="matrix(-0.062057,-1.440394,0.913811,0.011738,-306.265208,580.569054)">
                            <path d="M27.818,502.99C32.893,488.857 44.28,479 57.5,479C75.437,479 90,497.147 90,519.5C90,541.853 75.437,560 57.5,560C47.808,560 39.101,554.702 33.145,546.305C33.323,541.703 33.268,536.98 32.961,532.175C32.293,521.74 30.498,511.887 27.818,502.99Z" style="fill:url(#_Linear54);"/>
                        </g>
                        <g transform="matrix(1.098883,0.027851,0.021412,0.847884,88.076704,151.211326)">
                            <ellipse cx="62" cy="414.5" rx="20" ry="30.5" style="fill:rgb(0,18,104);"/>
                        </g>
                        <g transform="matrix(0.65625,0,0,0.65625,76,204.96875)">
                            <circle cx="112" cy="429" r="16" style="fill:white;"/>
                        </g>
                    </g>
                    <g transform="matrix(0.800087,-0.096863,0.096796,0.799531,-28.745787,17.62761)">
                        <path d="M145.684,681.46C136.121,684.114 127.302,688.194 119.567,693.407C108.27,701.021 99.286,711.052 93.678,722.59C97.952,710.22 105.747,699.283 115.98,690.772C122.641,685.232 130.334,680.72 138.762,677.509C148.078,673.959 158.292,672 169,672C173.93,672 178.755,672.415 183.436,673.21C190.7,674.443 197.616,676.589 204.039,679.514C213.448,683.798 221.796,689.754 228.623,696.956C220.725,690.756 211.453,685.825 201.246,682.543C193.787,680.144 185.828,678.626 177.543,678.135C175.598,678.02 173.635,677.961 171.657,677.961C162.597,677.961 153.868,679.189 145.684,681.46Z" style="fill:rgb(0,78,185);"/>
                    </g>
                    <g transform="matrix(1.123077,0,0,1,38.123077,-92)">
                        <path d="M66.599,685.793C74.492,655.878 99.458,634 129,634C146.385,634 162.185,641.576 173.853,653.908C160.144,643.727 142.615,638.676 124.169,641.069C97.719,644.501 76.211,662.355 66.599,685.793Z" style="fill:rgb(136,232,249);"/>
                    </g>
                    <g transform="matrix(0.926047,0.054613,-0.054613,0.926047,-45.946129,4.571629)">
                        <path d="M181.493,428.308C181.375,428.001 180.787,426.471 181.012,424.231L181.003,424.267L181.023,424.13L181.386,422.22C184.351,409.424 199.393,395.697 219.383,390.823C237.344,386.445 254.879,390.471 263.527,397.694C267.016,400.422 268.844,403.279 269.205,403.843C272.765,409.409 272.152,414.621 270.677,416.099L269.848,416.738C266.74,418.501 249.095,408.266 227.714,410.282C203.391,412.576 187.481,436.378 182.618,430.272L181.493,428.308Z" style="fill:url(#_Linear55);"/>
                    </g>
                </g>
                <g id="Cerradura" transform="matrix(0.843814,0,0,0.834381,-120.494665,153.012475)">
                    <g transform="matrix(15.910317,150.61766,150.61766,-15.910317,-709.208599,774.686104)">
                        <g style="filter:url(#_Effect56);">
                            <path d="M0.315,-0.193C0.376,-0.267 0.465,-0.315 0.552,-0.323C0.687,-0.334 0.778,-0.27 0.822,-0.228L1.29,-0.412C1.322,-0.424 1.357,-0.421 1.386,-0.403C1.415,-0.386 1.434,-0.356 1.438,-0.322L1.495,0.219C1.498,0.253 1.486,0.286 1.461,0.309C1.436,0.333 1.402,0.343 1.369,0.337L0.872,0.253C0.843,0.293 0.785,0.354 0.679,0.389C0.596,0.416 0.501,0.403 0.418,0.353C0.324,0.298 0.26,0.204 0.24,0.095C0.238,0.086 0.237,0.077 0.236,0.068C0.226,-0.027 0.254,-0.119 0.315,-0.193Z" style="fill:url(#_Linear57);fill-rule:nonzero;"/>
                        </g>
                    </g>
                    <g transform="matrix(9.576057,106.642441,106.642441,-9.576057,-692.807304,892.628021)">
                        <path d="M-0.317,-0.419C-0.086,-0.435 0.034,-0.264 0.034,-0.264L0.751,-0.533C0.797,-0.55 0.846,-0.519 0.851,-0.47L0.919,0.296C0.924,0.345 0.88,0.384 0.832,0.375L0.079,0.235C0.079,0.235 0.019,0.373 -0.183,0.435C-0.385,0.497 -0.65,0.345 -0.695,0.073C-0.697,0.062 -0.698,0.051 -0.699,0.04C-0.722,-0.216 -0.512,-0.406 -0.317,-0.419Z" style="fill:url(#_Radial58);fill-rule:nonzero;"/>
                        <path d="M-0.317,-0.419C-0.086,-0.435 0.034,-0.264 0.034,-0.264L0.751,-0.533C0.797,-0.55 0.846,-0.519 0.851,-0.47L0.919,0.296C0.924,0.345 0.88,0.384 0.832,0.375L0.079,0.235C0.079,0.235 0.019,0.373 -0.183,0.435C-0.385,0.497 -0.65,0.345 -0.695,0.073C-0.697,0.062 -0.698,0.051 -0.699,0.04C-0.722,-0.216 -0.512,-0.406 -0.317,-0.419Z" style="fill:url(#_Radial59);fill-rule:nonzero;"/>
                    </g>
                </g>
            </g>
        </g>
    </g>
    <defs>
        <linearGradient id="_Linear1" x1="0" y1="0" x2="1" y2="0.041" gradientUnits="userSpaceOnUse" gradientTransform="matrix(115.947644,414.051298,-745.9424,94.036851,1699.232224,286)"><stop offset="0" style="stop-color:rgb(239,250,255);stop-opacity:1"/><stop offset="0.26" style="stop-color:rgb(125,205,252);stop-opacity:1"/><stop offset="0.63" style="stop-color:rgb(1,138,227);stop-opacity:1"/><stop offset="1" style="stop-color:rgb(0,122,197);stop-opacity:1"/></linearGradient>
        <linearGradient id="_Linear2" x1="0" y1="0" x2="1" y2="0.054" gradientUnits="userSpaceOnUse" gradientTransform="matrix(74.36888,349.882552,-437.141233,39.014388,1730.782657,293.069704)"><stop offset="0" style="stop-color:rgb(164,242,255);stop-opacity:1"/><stop offset="0.41" style="stop-color:rgb(1,138,227);stop-opacity:1"/><stop offset="1" style="stop-color:rgb(0,122,197);stop-opacity:1"/></linearGradient>
        <linearGradient id="_Linear3" x1="0" y1="0" x2="1" y2="0.041" gradientUnits="userSpaceOnUse" gradientTransform="matrix(115.947644,414.051298,-745.9424,94.036851,1699.232224,286)"><stop offset="0" style="stop-color:rgb(239,250,255);stop-opacity:1"/><stop offset="0.26" style="stop-color:rgb(125,205,252);stop-opacity:1"/><stop offset="0.63" style="stop-color:rgb(1,138,227);stop-opacity:1"/><stop offset="1" style="stop-color:rgb(0,122,197);stop-opacity:1"/></linearGradient>
        <linearGradient id="_Linear4" x1="0" y1="0" x2="1" y2="0.054" gradientUnits="userSpaceOnUse" gradientTransform="matrix(74.36888,349.882552,-437.141233,39.014388,1730.782657,293.069704)"><stop offset="0" style="stop-color:rgb(164,242,255);stop-opacity:1"/><stop offset="0.41" style="stop-color:rgb(1,138,227);stop-opacity:1"/><stop offset="1" style="stop-color:rgb(0,122,197);stop-opacity:1"/></linearGradient>
        <linearGradient id="_Linear5" x1="0" y1="0" x2="1" y2="0" gradientUnits="userSpaceOnUse" gradientTransform="matrix(1.137578,0.666349,0.753866,-1.137578,0.089525,-0.221079)"><stop offset="0" style="stop-color:rgb(195,240,100);stop-opacity:1"/><stop offset="0.5" style="stop-color:rgb(46,191,140);stop-opacity:1"/><stop offset="1" style="stop-color:rgb(4,113,168);stop-opacity:1"/></linearGradient>
        <filter id="_Effect7" filterUnits="userSpaceOnUse" x="-48.818" y="418.65" width="358.636" height="195.701">
            <feGaussianBlur in="SourceGraphic" stdDeviation="9.652"/>
        </filter>
        <linearGradient id="_Linear8" x1="0" y1="0" x2="1" y2="0" gradientUnits="userSpaceOnUse" gradientTransform="matrix(1.720915,-0.27332,0.309217,1.720915,-0.731805,-0.106201)"><stop offset="0" style="stop-color:rgb(195,247,96);stop-opacity:1"/><stop offset="0.67" style="stop-color:rgb(170,236,105);stop-opacity:1"/><stop offset="0.85" style="stop-color:rgb(97,204,132);stop-opacity:1"/><stop offset="1" style="stop-color:rgb(6,165,166);stop-opacity:1"/></linearGradient>
        <linearGradient id="_Linear9" x1="0" y1="0" x2="1" y2="0" gradientUnits="userSpaceOnUse" gradientTransform="matrix(0.809578,-0.069701,0.019374,-1.168414,-0.148803,-0.069511)"><stop offset="0" style="stop-color:rgb(194,247,96);stop-opacity:1"/><stop offset="0.24" style="stop-color:rgb(166,236,105);stop-opacity:1"/><stop offset="1" style="stop-color:rgb(29,183,148);stop-opacity:1"/></linearGradient>
        <filter id="_Effect11" filterUnits="userSpaceOnUse" x="-38.214" y="422.332" width="337.428" height="188.335">
            <feGaussianBlur in="SourceGraphic" stdDeviation="8.832"/>
        </filter>
        <linearGradient id="_Linear12" x1="0" y1="0" x2="1" y2="0" gradientUnits="userSpaceOnUse" gradientTransform="matrix(1.846506,-0.484092,-0.18153,-2.637735,-1.232913,0.106978)"><stop offset="0" style="stop-color:rgb(217,249,92);stop-opacity:1"/><stop offset="0.6" style="stop-color:rgb(216,249,92);stop-opacity:1"/><stop offset="0.64" style="stop-color:rgb(216,249,92);stop-opacity:1"/><stop offset="0.78" style="stop-color:rgb(121,229,115);stop-opacity:1"/><stop offset="0.9" style="stop-color:rgb(51,196,140);stop-opacity:1"/><stop offset="1" style="stop-color:rgb(13,167,157);stop-opacity:1"/></linearGradient>
        <linearGradient id="_Linear13" x1="0" y1="0" x2="1" y2="0" gradientUnits="userSpaceOnUse" gradientTransform="matrix(0.728087,0.169579,0.170804,-0.728087,0.213021,-0.157189)"><stop offset="0" style="stop-color:rgb(195,240,100);stop-opacity:1"/><stop offset="0.44" style="stop-color:rgb(46,191,140);stop-opacity:1"/><stop offset="0.88" style="stop-color:rgb(4,113,168);stop-opacity:1"/><stop offset="1" style="stop-color:rgb(4,113,168);stop-opacity:1"/></linearGradient>
        <filter id="_Effect15" filterUnits="userSpaceOnUse" x="-48.818" y="418.65" width="358.636" height="195.701">
            <feGaussianBlur in="SourceGraphic" stdDeviation="9.652"/>
        </filter>
        <linearGradient id="_Linear16" x1="0" y1="0" x2="1" y2="0" gradientUnits="userSpaceOnUse" gradientTransform="matrix(1.789135,0.105896,-0.106661,1.789135,-1.022697,-0.201547)"><stop offset="0" style="stop-color:rgb(217,249,92);stop-opacity:1"/><stop offset="0.64" style="stop-color:rgb(216,249,92);stop-opacity:1"/><stop offset="1" style="stop-color:rgb(8,163,159);stop-opacity:1"/></linearGradient>
        <linearGradient id="_Linear17" x1="0" y1="0" x2="1" y2="-0" gradientUnits="userSpaceOnUse" gradientTransform="matrix(-3.456959,461.174551,-476.159829,-3.356776,437.865187,107.51382)"><stop offset="0" style="stop-color:rgb(119,213,255);stop-opacity:1"/><stop offset="0.41" style="stop-color:rgb(1,138,227);stop-opacity:1"/><stop offset="1" style="stop-color:rgb(0,122,197);stop-opacity:1"/></linearGradient>
        <linearGradient id="_Linear18" x1="0" y1="0" x2="1" y2="-0" gradientUnits="userSpaceOnUse" gradientTransform="matrix(-0.877193,507.203306,-505.309326,-0.819777,531.087719,142.947107)"><stop offset="0" style="stop-color:rgb(112,247,255);stop-opacity:1"/><stop offset="1" style="stop-color:rgb(1,100,231);stop-opacity:1"/></linearGradient>
        <filter id="_Effect19" filterUnits="userSpaceOnUse" x="53.601" y="392.421" width="153.798" height="248.157">
            <feGaussianBlur in="SourceGraphic" stdDeviation="5.025"/>
        </filter>
        <filter id="_Effect20" filterUnits="userSpaceOnUse" x="23.575" y="392.421" width="213.85" height="248.157">
            <feGaussianBlur in="SourceGraphic" stdDeviation="9.869"/>
        </filter>
        <filter id="_Effect21" filterUnits="userSpaceOnUse" x="7.723" y="427.752" width="245.554" height="177.495">
            <feGaussianBlur in="SourceGraphic" stdDeviation="7.215"/>
        </filter>
        <linearGradient id="_Linear22" x1="0" y1="0" x2="1" y2="0" gradientUnits="userSpaceOnUse" gradientTransform="matrix(1.640516,-0.383882,-0.383882,-1.640516,-0.779598,0.336659)"><stop offset="0" style="stop-color:rgb(124,236,255);stop-opacity:1"/><stop offset="0.59" style="stop-color:rgb(78,212,255);stop-opacity:1"/><stop offset="0.81" style="stop-color:rgb(2,182,227);stop-opacity:1"/><stop offset="1" style="stop-color:rgb(0,80,188);stop-opacity:1"/></linearGradient>
        <linearGradient id="_Linear23" x1="0" y1="0" x2="1" y2="0" gradientUnits="userSpaceOnUse" gradientTransform="matrix(1.640516,-0.383882,-0.383882,-1.640516,-0.779598,0.336659)"><stop offset="0" style="stop-color:rgb(124,236,255);stop-opacity:1"/><stop offset="0.59" style="stop-color:rgb(78,212,255);stop-opacity:1"/><stop offset="0.81" style="stop-color:rgb(2,182,227);stop-opacity:1"/><stop offset="1" style="stop-color:rgb(0,80,188);stop-opacity:1"/></linearGradient>
        <linearGradient id="_Linear24" x1="0" y1="0" x2="1" y2="0" gradientUnits="userSpaceOnUse" gradientTransform="matrix(-0.435991,-0.031758,-0.031758,0.435991,1.020823,0.03612)"><stop offset="0" style="stop-color:rgb(42,235,222);stop-opacity:1"/><stop offset="1" style="stop-color:rgb(42,235,222);stop-opacity:0"/></linearGradient>
        <linearGradient id="_Linear25" x1="0" y1="0" x2="1" y2="0" gradientUnits="userSpaceOnUse" gradientTransform="matrix(-0.435991,-0.031758,-0.031758,0.435991,1.020823,0.03612)"><stop offset="0" style="stop-color:rgb(42,235,222);stop-opacity:1"/><stop offset="1" style="stop-color:rgb(42,235,222);stop-opacity:0"/></linearGradient>
        <linearGradient id="_Linear26" x1="0" y1="0" x2="1" y2="0" gradientUnits="userSpaceOnUse" gradientTransform="matrix(444.588764,148.112679,-371.218576,609.08294,372.566311,148.49537)"><stop offset="0" style="stop-color:rgb(156,234,255);stop-opacity:1"/><stop offset="1" style="stop-color:rgb(79,224,255);stop-opacity:1"/></linearGradient>
        <radialGradient id="_Radial27" cx="0" cy="0" r="1" gradientUnits="userSpaceOnUse" gradientTransform="matrix(1,0,0,-1,0,0.610024)"><stop offset="0" style="stop-color:rgb(2,55,158);stop-opacity:1"/><stop offset="0.38" style="stop-color:rgb(2,55,158);stop-opacity:1"/><stop offset="1" style="stop-color:rgb(1,20,101);stop-opacity:1"/></radialGradient>
        <linearGradient id="_Linear28" x1="0" y1="0" x2="1" y2="0" gradientUnits="userSpaceOnUse" gradientTransform="matrix(455.415211,0,0,60.730338,392.153235,645.585855)"><stop offset="0" style="stop-color:rgb(41,208,255);stop-opacity:1"/><stop offset="1" style="stop-color:rgb(92,226,255);stop-opacity:1"/></linearGradient>
        <filter id="_Effect29" filterUnits="userSpaceOnUse" x="-5.435" y="385.839" width="271.869" height="261.321">
            <feGaussianBlur in="SourceGraphic" stdDeviation="13.111"/>
        </filter>
        <filter id="_Effect30" filterUnits="userSpaceOnUse" x="-3.017" y="380.675" width="267.035" height="271.65">
            <feGaussianBlur in="SourceGraphic" stdDeviation="13.358"/>
        </filter>
        <filter id="_Effect31" filterUnits="userSpaceOnUse" x="7.723" y="372.671" width="245.554" height="287.658">
            <feGaussianBlur in="SourceGraphic" stdDeviation="12.786"/>
        </filter>
        <filter id="_Effect32" filterUnits="userSpaceOnUse" x="-43.106" y="344.203" width="347.211" height="344.593">
            <feGaussianBlur in="SourceGraphic" stdDeviation="19.741"/>
        </filter>
        <linearGradient id="_Linear33" x1="0" y1="0" x2="1" y2="0" gradientUnits="userSpaceOnUse" gradientTransform="matrix(173.070623,183.700616,-192.236121,169.160977,78.985227,29.214007)"><stop offset="0" style="stop-color:rgb(154,232,255);stop-opacity:1"/><stop offset="0.82" style="stop-color:rgb(10,197,255);stop-opacity:1"/><stop offset="1" style="stop-color:rgb(0,198,255);stop-opacity:1"/></linearGradient>
        <linearGradient id="_Linear34" x1="0" y1="0" x2="1" y2="0" gradientUnits="userSpaceOnUse" gradientTransform="matrix(59.989614,1.390934,-1.342873,63.385253,248.010386,155.609066)"><stop offset="0" style="stop-color:rgb(158,232,255);stop-opacity:1"/><stop offset="0.21" style="stop-color:rgb(129,225,255);stop-opacity:1"/><stop offset="1" style="stop-color:rgb(8,196,255);stop-opacity:1"/></linearGradient>
        <linearGradient id="_Linear35" x1="0" y1="0" x2="1" y2="0" gradientUnits="userSpaceOnUse" gradientTransform="matrix(-320.837043,-8.520611,8.226196,-338.99763,487.099851,167.530649)"><stop offset="0" style="stop-color:rgb(37,196,240);stop-opacity:1"/><stop offset="1" style="stop-color:rgb(84,215,255);stop-opacity:1"/></linearGradient>
        <linearGradient id="_Linear36" x1="0" y1="0" x2="1" y2="0" gradientUnits="userSpaceOnUse" gradientTransform="matrix(-82.887636,-128.721499,120.800176,-88.322891,373.979835,259.721499)"><stop offset="0" style="stop-color:rgb(154,232,255);stop-opacity:1"/><stop offset="1" style="stop-color:rgb(0,198,255);stop-opacity:1"/></linearGradient>
        <linearGradient id="_Linear37" x1="0" y1="0" x2="1" y2="0" gradientUnits="userSpaceOnUse" gradientTransform="matrix(81.066369,27.02709,-19.878909,85.655032,229.708791,134.675367)"><stop offset="0" style="stop-color:rgb(154,232,255);stop-opacity:1"/><stop offset="1" style="stop-color:rgb(0,198,255);stop-opacity:1"/></linearGradient>
        <linearGradient id="_Linear38" x1="0" y1="0" x2="1" y2="0.01" gradientUnits="userSpaceOnUse" gradientTransform="matrix(93,120,120,-93,-49.363611,-79.959673)"><stop offset="0" style="stop-color:rgb(252,252,250);stop-opacity:1"/><stop offset="0.43" style="stop-color:white;stop-opacity:1"/><stop offset="1" style="stop-color:rgb(132,132,132);stop-opacity:1"/></linearGradient>
        <linearGradient id="_Linear39" x1="0" y1="0" x2="1" y2="0" gradientUnits="userSpaceOnUse" gradientTransform="matrix(-112.812333,9.559163,-9.559163,-112.812333,31.223522,-17.202381)"><stop offset="0" style="stop-color:rgb(252,252,250);stop-opacity:1"/><stop offset="0.43" style="stop-color:white;stop-opacity:1"/><stop offset="1" style="stop-color:rgb(132,132,132);stop-opacity:1"/></linearGradient>
        <filter id="_Effect40" filterUnits="userSpaceOnUse" x="7.723" y="372.671" width="245.554" height="287.658">
            <feGaussianBlur in="SourceGraphic" stdDeviation="12.786"/>
        </filter>
        <filter id="_Effect41" filterUnits="userSpaceOnUse" x="-43.106" y="344.203" width="347.211" height="344.593">
            <feGaussianBlur in="SourceGraphic" stdDeviation="19.741"/>
        </filter>
        <linearGradient id="_Linear42" x1="0" y1="0" x2="1" y2="0" gradientUnits="userSpaceOnUse" gradientTransform="matrix(173.070623,183.700616,-192.236121,169.160977,78.985227,29.214007)"><stop offset="0" style="stop-color:rgb(154,232,255);stop-opacity:1"/><stop offset="0.82" style="stop-color:rgb(10,197,255);stop-opacity:1"/><stop offset="1" style="stop-color:rgb(0,198,255);stop-opacity:1"/></linearGradient>
        <linearGradient id="_Linear43" x1="0" y1="0" x2="1" y2="0" gradientUnits="userSpaceOnUse" gradientTransform="matrix(59.989614,1.390934,-1.342873,63.385253,248.010386,155.609066)"><stop offset="0" style="stop-color:rgb(158,232,255);stop-opacity:1"/><stop offset="0.21" style="stop-color:rgb(129,225,255);stop-opacity:1"/><stop offset="1" style="stop-color:rgb(8,196,255);stop-opacity:1"/></linearGradient>
        <linearGradient id="_Linear44" x1="0" y1="0" x2="1" y2="0" gradientUnits="userSpaceOnUse" gradientTransform="matrix(-320.837043,-8.520611,8.226196,-338.99763,487.099851,167.530649)"><stop offset="0" style="stop-color:rgb(37,196,240);stop-opacity:1"/><stop offset="1" style="stop-color:rgb(84,215,255);stop-opacity:1"/></linearGradient>
        <linearGradient id="_Linear45" x1="0" y1="0" x2="1" y2="0" gradientUnits="userSpaceOnUse" gradientTransform="matrix(-82.887636,-128.721499,120.800176,-88.322891,373.979835,259.721499)"><stop offset="0" style="stop-color:rgb(154,232,255);stop-opacity:1"/><stop offset="1" style="stop-color:rgb(0,198,255);stop-opacity:1"/></linearGradient>
        <linearGradient id="_Linear46" x1="0" y1="0" x2="1" y2="0" gradientUnits="userSpaceOnUse" gradientTransform="matrix(81.066369,27.02709,-19.878909,85.655032,229.708791,134.675367)"><stop offset="0" style="stop-color:rgb(154,232,255);stop-opacity:1"/><stop offset="1" style="stop-color:rgb(0,198,255);stop-opacity:1"/></linearGradient>
        <linearGradient id="_Linear47" x1="0" y1="0" x2="1" y2="0.01" gradientUnits="userSpaceOnUse" gradientTransform="matrix(93,120,120,-93,-49.363611,-79.959673)"><stop offset="0" style="stop-color:rgb(252,252,250);stop-opacity:1"/><stop offset="0.43" style="stop-color:white;stop-opacity:1"/><stop offset="1" style="stop-color:rgb(132,132,132);stop-opacity:1"/></linearGradient>
        <linearGradient id="_Linear48" x1="0" y1="0" x2="1" y2="0" gradientUnits="userSpaceOnUse" gradientTransform="matrix(-112.812333,9.559163,-9.559163,-112.812333,31.223522,-17.202381)"><stop offset="0" style="stop-color:rgb(252,252,250);stop-opacity:1"/><stop offset="0.43" style="stop-color:white;stop-opacity:1"/><stop offset="1" style="stop-color:rgb(132,132,132);stop-opacity:1"/></linearGradient>
        <linearGradient id="_Linear49" x1="0" y1="0" x2="1" y2="0" gradientUnits="userSpaceOnUse" gradientTransform="matrix(0.286776,-0.149519,0.151647,0.290858,-0.025798,-0.27905)"><stop offset="0" style="stop-color:rgb(3,135,220);stop-opacity:1"/><stop offset="0.47" style="stop-color:rgb(2,110,190);stop-opacity:1"/><stop offset="1" style="stop-color:rgb(0,42,108);stop-opacity:1"/></linearGradient>
        <linearGradient id="_Linear50" x1="0" y1="0" x2="1" y2="0" gradientUnits="userSpaceOnUse" gradientTransform="matrix(0.231975,-0.042869,-0.042869,-0.231975,-0.094931,-0.494318)"><stop offset="0" style="stop-color:rgb(3,135,220);stop-opacity:1"/><stop offset="0.47" style="stop-color:rgb(2,110,190);stop-opacity:1"/><stop offset="1" style="stop-color:rgb(0,42,108);stop-opacity:1"/></linearGradient>
        <radialGradient id="_Radial51" cx="0" cy="0" r="1" gradientUnits="userSpaceOnUse" gradientTransform="matrix(31.765579,0,0,25.180832,696.173894,512.998919)"><stop offset="0" style="stop-color:rgb(0,43,149);stop-opacity:1"/><stop offset="0.06" style="stop-color:rgb(0,43,149);stop-opacity:1"/><stop offset="0.82" style="stop-color:rgb(3,19,110);stop-opacity:1"/><stop offset="1" style="stop-color:rgb(3,19,110);stop-opacity:1"/></radialGradient>
        <linearGradient id="_Linear52" x1="0" y1="0" x2="1" y2="0" gradientUnits="userSpaceOnUse" gradientTransform="matrix(48.401015,41.702163,-64.098642,31.489388,677.596605,487.830142)"><stop offset="0" style="stop-color:rgb(3,19,110);stop-opacity:1"/><stop offset="0.63" style="stop-color:rgb(33,57,195);stop-opacity:1"/><stop offset="1" style="stop-color:rgb(0,90,185);stop-opacity:1"/></linearGradient>
        <filter id="_Effect53" filterUnits="userSpaceOnUse" x="57.066" y="388.707" width="100.843" height="49.823">
            <feGaussianBlur in="SourceGraphic" stdDeviation="0.366"/>
        </filter>
        <linearGradient id="_Linear54" x1="0" y1="0" x2="1" y2="0.071" gradientUnits="userSpaceOnUse" gradientTransform="matrix(65,0,0,81,25,519.5)"><stop offset="0" style="stop-color:rgb(0,52,162);stop-opacity:1"/><stop offset="0.11" style="stop-color:rgb(0,58,181);stop-opacity:1"/><stop offset="0.49" style="stop-color:rgb(0,20,103);stop-opacity:1"/><stop offset="1" style="stop-color:rgb(0,80,188);stop-opacity:1"/></linearGradient>
        <linearGradient id="_Linear55" x1="0" y1="0" x2="1" y2="0" gradientUnits="userSpaceOnUse" gradientTransform="matrix(31.774451,152.140299,-152.140299,31.774451,220.649602,332.904614)"><stop offset="0" style="stop-color:rgb(6,74,179);stop-opacity:1"/><stop offset="0.45" style="stop-color:rgb(4,61,149);stop-opacity:1"/><stop offset="1" style="stop-color:rgb(0,30,75);stop-opacity:1"/></linearGradient>
        <filter id="_Effect56" filterUnits="userSpaceOnUse" x="0.23" y="-0.423" width="1.269" height="0.83">
            <feGaussianBlur in="SourceGraphic" stdDeviation="0.001"/>
        </filter>
        <linearGradient id="_Linear57" x1="0" y1="0" x2="1" y2="0.002" gradientUnits="userSpaceOnUse" gradientTransform="matrix(2.767276,-0.344562,-0.352222,-2.765639,-1.131802,0.22286)"><stop offset="0" style="stop-color:rgb(1,139,207);stop-opacity:1"/><stop offset="0.62" style="stop-color:rgb(8,150,215);stop-opacity:1"/><stop offset="1" style="stop-color:rgb(44,203,255);stop-opacity:1"/></linearGradient>
        <radialGradient id="_Radial58" cx="0" cy="0" r="1" gradientUnits="userSpaceOnUse" gradientTransform="matrix(1,0,0,-1,0,-0.052832)"><stop offset="0" style="stop-color:rgb(0,40,139);stop-opacity:1"/><stop offset="0.24" style="stop-color:rgb(0,40,139);stop-opacity:1"/><stop offset="0.8" style="stop-color:rgb(0,19,103);stop-opacity:1"/><stop offset="1" style="stop-color:rgb(0,19,103);stop-opacity:1"/></radialGradient>
        <radialGradient id="_Radial59" cx="0" cy="0" r="1" gradientUnits="userSpaceOnUse" gradientTransform="matrix(1,0,0,-1,0,-0.052832)"><stop offset="0" style="stop-color:rgb(0,40,139);stop-opacity:1"/><stop offset="0.24" style="stop-color:rgb(0,40,139);stop-opacity:1"/><stop offset="0.8" style="stop-color:rgb(0,19,103);stop-opacity:1"/><stop offset="1" style="stop-color:rgb(0,19,103);stop-opacity:1"/></radialGradient>
    </defs>
</svg>
