<svg id="Capa_1" data-name="Capa 1" xmlns="http://www.w3.org/2000/svg" viewBox="0 0 219.15 219.15"><defs><style>.cls-1{fill:#6f6f6f;}</style></defs><title>goback</title><path class="cls-1" d="M109.58,219.15A109.58,109.58,0,1,0,0,109.57,109.7,109.7,0,0,0,109.58,219.15Zm0-204.15A94.58,94.58,0,1,1,15,109.57,94.68,94.68,0,0,1,109.58,15Z"/><path class="cls-1" d="M94.86,156.51a7.5,7.5,0,0,0,10.61-10.61L76.65,117.08H160.1a7.5,7.5,0,0,0,0-15H76.64l28.83-28.82A7.5,7.5,0,1,0,94.86,62.65L53.23,104.28a7.51,7.51,0,0,0,0,10.6Z"/></svg>