<svg id="Capa_1" data-name="Capa 1" xmlns="http://www.w3.org/2000/svg" viewBox="0 0 500 500"><defs><style>.cls-1{fill:#ccc;}</style></defs><title>files</title><path class="cls-1" d="M203.88,320.23q0-65.71,0-131.44c0-18.33,9.7-28,28.06-28,44.9,0,89.8.05,134.7-.1,5.62,0,9.87,1.53,13.89,5.6q31.9,32.36,64.26,64.26a16.7,16.7,0,0,1,5.26,12.93q-.18,104.67-.08,209.34c0,17.71-9.64,27.48-27.37,27.48q-95.75.06-191.49,0c-17.83,0-27.22-9.56-27.23-27.5Q203.86,386.5,203.88,320.23ZM360.36,177.11c-2.2-.21-3.62-.46-5-.46q-62.5,0-125,0c-8.08,0-11,3-11,11.3q0,132.59,0,265.16c0,8.69,3,11.64,11.77,11.65q95.23,0,190.48,0c10,0,12.89-2.88,12.9-12.85q0-97.41,0-194.81c0-2.07-.31-4.14-.5-6.49-2.77-.12-4.91-.29-7-.3-13.17,0-26.34.09-39.51-.05-16.52-.18-26.57-10.35-26.65-26.79-.05-13.17,0-26.34,0-39.51C360.79,181.85,360.53,179.74,360.36,177.11Zm63.87,57.11q-23.88-23.85-47.6-47.51c.15-.3-.13,0-.13.31-.07,12.06-.17,24.12-.13,36.18,0,8.35,3,11.23,11.51,11.32q16.2.18,32.4.19A28.14,28.14,0,0,0,424.23,234.22Z"/><path class="cls-1" d="M310.75,151.75H295.43L290,136.64c-6.55,1.92-12.75,3.66-18.9,5.56-8.62,2.64-17.21,5.38-25.8,8.12-15.42,4.93-28.59-1.94-33.44-17.5-4-12.91-8-25.84-12-38.75-.57-1.84-1.36-3.61-2.28-6-10.07,3.08-19.69,6-29.28,9Q122,111.43,75.83,125.87c-10.85,3.37-12.64,6.58-9.23,17.5Q84,199.14,101.49,254.89q20.58,66.11,41,132.26c5.53,17.91,6.57,18.5,24.27,13,9.07-2.82,18.15-5.62,27.74-8.59v16.07c-12.68,3.58-25.09,8.2-37.92,10.39-12.27,2.11-21.83-5.55-25.82-18.24Q114,346.64,97.51,293.42q-22.7-72.81-45.37-145.63c-5.77-18.48.47-30.47,18.82-36.16,43.4-13.46,86.75-27.08,130.2-40.37a14.92,14.92,0,0,1,10.17.65q42.12,21.59,83.82,44a16.59,16.59,0,0,1,6.91,8.25C305.33,132.84,307.71,141.87,310.75,151.75ZM214.54,90.43c4.49,14.46,8.26,27.22,12.46,39.84,1.93,5.82,6.42,7.81,12.59,6,9-2.64,17.89-5.56,26.81-8.39,3.51-1.11,7-2.3,12-4Z"/><path class="cls-1" d="M159.68,75,143.86,79.8c-.21-2.65-.51-4.53-.5-6.41,0-9,.1-18,.28-27C144,30.72,154.45,20,170,20.13q70.35.81,140.68,2.26a13.53,13.53,0,0,1,8.44,3.81q33.4,33.94,66.3,68.38c2.05,2.14,3.87,5.59,3.87,8.44,0,18.93-.49,37.87-.85,56.8a8.55,8.55,0,0,1-.57,1.88l-15-9.93V112.33c-7.23,0-13.84,0-20.44,0-9-.06-18-.07-27-.28-14.91-.34-25.05-10.61-25.08-25.5,0-13.35.23-26.7.35-40.05,0-2.31,0-4.63,0-7.48a43.07,43.07,0,0,0-5.61-.88q-62.22-1-124.44-2c-7.87-.11-10.8,2.84-10.92,10.75C159.58,56.09,159.68,65.26,159.68,75ZM365.16,96.28l-47-48.54-2.05.64c0,13.43-.27,26.87.14,40.29.15,4.66,4,7.44,8.57,7.52C337.73,96.44,350.69,96.28,365.16,96.28Z"/><path class="cls-1" d="M194.6,190.49v15.13c-1.92.72-3.7,1.48-5.55,2.06q-32.24,10.06-64.5,20.07a31.37,31.37,0,0,1-3.11.89c-4.46.85-8.09-.43-9.47-5s.88-7.79,5.19-9.26c7-2.38,14.08-4.47,21.13-6.68q25.53-8,51.07-15.92C190.87,191.34,192.42,191,194.6,190.49Z"/><path class="cls-1" d="M194.46,228.78v15c-10.71,3.43-21.13,6.82-31.59,10.1-9.8,3.07-19.61,6.13-29.48,9-5.3,1.55-9.22-.27-10.67-4.47s1-8.19,6.1-9.82q31-9.76,62-19.3A25.7,25.7,0,0,1,194.46,228.78Z"/><path class="cls-1" d="M194.66,266v15.71c-10.24,3.26-20.46,6.57-30.72,9.77-7,2.2-14.07,4.41-21.19,6.34-4.21,1.13-7.55-.44-9-4.74-1.31-3.94-.1-7.69,3.78-9C156.28,277.89,175.12,272.11,194.66,266Z"/><path class="cls-1" d="M194.52,304.15v15.62l-33.47,10.44c-1.72.54-3.45,1-5.18,1.55-6,1.79-10.08.27-11.61-4.32-1.47-4.4,1.05-8.07,7.2-10,9.45-3,18.94-5.9,28.42-8.82C184.48,307.16,189.1,305.79,194.52,304.15Z"/><path class="cls-1" d="M194.48,342.21v15.56c-10.69,3.2-21.09,6.63-31.68,9.31-3.91,1-7-1.81-7.82-5.84-.94-4.44,1.51-7.34,5.49-8.68,8.19-2.75,16.47-5.26,24.72-7.81C188.07,343.86,191,343.16,194.48,342.21Z"/><path class="cls-1" d="M319.42,150.47c-1.72-5.55-3.18-10.26-4.94-16,7.89,0,14.84,0,21.79,0a92.17,92.17,0,0,1,10.78.33c4.47.54,7.41,3.23,7.25,7.91s-3.08,7.47-7.61,7.62C337.74,150.67,328.77,150.47,319.42,150.47Z"/><path class="cls-1" d="M327,344.88q38.4,0,76.79,0a23,23,0,0,1,5.38.36c4,.95,6.22,3.55,6.16,7.74-.06,3.94-2.25,6.41-6,7.33a22.32,22.32,0,0,1-5.37.43q-77.06,0-154.11,0h-1.09c-7-.17-10.66-3-10.55-8.1s3.85-7.77,10.9-7.78Q288.1,344.83,327,344.88Z"/><path class="cls-1" d="M327.14,417.36q38.1,0,76.21,0a25.38,25.38,0,0,1,6.42.53c3.77,1,6.27,3.92,5.37,7.56-.66,2.66-3.14,5.31-5.51,6.94-1.68,1.14-4.53.73-6.86.73q-75.93,0-151.88,0a32.91,32.91,0,0,1-6.44-.46c-3.81-.77-6.06-3.29-6.15-7.18-.09-4.12,2.18-6.83,6.18-7.72a30.08,30.08,0,0,1,6.45-.42Q289,417.32,327.14,417.36Z"/><path class="cls-1" d="M327.6,272.91q39.18,0,78.36,0c4.12,0,7.55.91,9,5.23a7.59,7.59,0,0,1-5.71,9.93,29.13,29.13,0,0,1-5.92.31h-153c-.9,0-1.81,0-2.71,0-6-.22-9.61-3.29-9.5-8.06.09-4.45,3.64-7.43,9.46-7.45,26.66-.07,53.31,0,80,0Z"/><path class="cls-1" d="M326.75,324.39H250a31.21,31.21,0,0,1-5.39-.25c-3.85-.7-6.06-3.15-6.24-7.06-.19-4.15,1.93-6.92,6-7.83a29.49,29.49,0,0,1,6.45-.37q76.5,0,153,0a31.47,31.47,0,0,1,4.86.17c4.34.69,6.82,3.3,6.73,7.73s-2.54,7-7,7.47a51.17,51.17,0,0,1-5.4.13Z"/><path class="cls-1" d="M327,396.8q-38.43,0-76.86,0c-2,0-4.48.55-5.82-.42-2.38-1.73-5-4.14-5.79-6.78-1.07-3.64,1.38-6.62,5.11-7.74a21,21,0,0,1,5.89-.54q76.85,0,153.7,0c8.65,0,12.31,2.44,12.12,8-.18,5.37-3.56,7.5-12,7.5Q365.19,396.82,327,396.8Z"/></svg>